<?xml version="1.0" encoding="UTF-8" standalone="no"?>
<svg width="180" height="140" viewBox="0 0 180 140" xmlns="http://www.w3.org/2000/svg">
  <!-- 渲染猫咪 2848090340606212 -->
  
  <!-- Gradient definitions -->
  <defs>
    <linearGradient
      id="cat-body-gradient-cat-gene-42"
      x1="0%"
      y1="0%"
      x2="100%"
      y2="100%"
    >
      <stop
        offset="0%"
        style="stop-color:#d2691e;stop-opacity:1"
      />
      <stop
        offset="100%"
        style="stop-color:#8b4513;stop-opacity:1"
      />
    </linearGradient>

    <linearGradient
      id="cat-head-gradient-cat-gene-42"
      x1="0%"
      y1="0%"
      x2="100%"
      y2="100%"
    >
      <stop
        offset="0%"
        style="stop-color:#d2691e;stop-opacity:1"
      />
      <stop
        offset="100%"
        style="stop-color:#8b4513;stop-opacity:1"
      />
    </linearGradient>

    
  </defs>

  <!-- Cat body -->
  <ellipse
    class="cat-body"
    cx="90"
    cy="95"
    rx="55"
    ry="40"
    fill="url(#cat-body-gradient-cat-gene-42)"
    stroke="#a0522d"
    stroke-width="1.5"
  />

  <!-- Cat head -->
  <circle
    class="cat-head"
    cx="90"
    cy="60"
    r="38"
    fill="url(#cat-head-gradient-cat-gene-42)"
    stroke="#a0522d"
    stroke-width="1.5"
  />

  <!-- Tail -->
  <path
    class="cat-tail"
    d="M30,90 Q35,60 45,80 Q55,95 40,105"
    fill="url(#cat-body-gradient-cat-gene-42)"
    stroke="#a0522d"
    stroke-width="1.5"
    stroke-linecap="round"
  />

  <!-- Ears -->
  <path
    class="cat-body"
    d="M65,35 L60,10 Q75,15 85,30"
    fill="url(#cat-body-gradient-cat-gene-42)"
    stroke="#a0522d"
    stroke-width="1.5"
  />
  <path
    class="cat-body"
    d="M115,35 L120,10 Q105,15 95,30"
    fill="url(#cat-body-gradient-cat-gene-42)"
    stroke="#a0522d"
    stroke-width="1.5"
  />

  <!-- Inner ears -->
  <path
    class="cat-body"
    d="M67,30 L65,15 Q75,20 80,28"
    fill="#deb887"
  />
  <path
    class="cat-body"
    d="M113,30 L115,15 Q105,20 100,28"
    fill="#deb887"
  />

  <!-- Cheeks -->
  <ellipse
    class="cat-body"
    cx="65"
    cy="70"
    rx="12"
    ry="10"
    fill="#deb887"
    opacity="0.6"
  />
  <ellipse
    class="cat-body"
    cx="115"
    cy="70"
    rx="12"
    ry="10"
    fill="#deb887"
    opacity="0.6"
  />

  <!-- Eyes -->
  <g class="cat-eyes">
    <ellipse
      cx="75"
      cy="55"
      rx="9"
      ry="11"
      fill="white"
      stroke="#333"
      stroke-width="1.5"
    />
    <ellipse
      cx="105"
      cy="55"
      rx="9"
      ry="11"
      fill="white"
      stroke="#333"
      stroke-width="1.5"
    />

    <!-- Eye highlights -->
    <circle
      cx="73"
      cy="51"
      r="3"
      fill="white"
    />
    <circle
      cx="103"
      cy="51"
      r="3"
      fill="white"
    />

    <!-- Pupils -->
    <ellipse
      cx="75"
      cy="55"
      rx="4"
      ry="8"
      fill="#9C27B0"
    />
    <ellipse
      cx="105"
      cy="55"
      rx="4"
      ry="8"
      fill="#4CAF50"
    />
  </g>

  <!-- Nose -->
  <path
    class="cat-body"
    d="M87,65 Q90,67 93,65 L93,68 Q90,70 87,68 Z"
    fill="#ff9999"
    stroke="#d67979"
    stroke-width="0.5"
  />

  <!-- Mouth -->
  <path
    class="cat-body"
    d="M85,72 Q90,77 95,72"
    fill="none"
    stroke="#333"
    stroke-width="1.5"
  />
  <path
    class="cat-body"
    d="M90,68 L90,72"
    fill="none"
    stroke="#333"
    stroke-width="1"
  />

  <!-- Gene Info -->

</svg>